HIERARCHY
ROOT Hips
{
	OFFSET 0.00000 0.00000 0.00000
	CHANNELS 6 Xposition Yposition Zposition Yrotation Zrotation Xrotation 
	JOINT Lumbar
	{
		OFFSET 0 0 0
		CHANNELS 3 Zrotation Xrotation Yrotation
		JOINT Neck
		{
			OFFSET 0.00 0.2701 0.00
			CHANNELS 3 Zrotation Xrotation Yrotation
			End Site
			{
				OFFSET 0.00 0.1379 0.00
			}
		}
		JOINT RightShoulder
		{
			OFFSET 0.0119 0.2289 0.1181
			CHANNELS 3 Zrotation Xrotation Yrotation
			JOINT RightElbow
			{
				OFFSET 0.00 -0.1475 0.00
				CHANNELS 2 Zrotation Yrotation
				JOINT RightWrist
				{
					OFFSET 0.00 -0.1605 0.00
					CHANNELS 2 Zrotation Xrotation
					End Site
					{
						OFFSET 0.0040 -0.1068 0.0006
					}
				}
			}
		}
		JOINT LeftShoulder
		{
			OFFSET 0.0119 0.2289 -0.1181
			CHANNELS 3 Zrotation Xrotation Yrotation
			JOINT LeftElbow
			{
				OFFSET 0.00 -0.1475 0.00
				CHANNELS 2 Zrotation Yrotation
				JOINT LeftWrist
				{
					OFFSET 0.00 -0.1605 0.00
					CHANNELS 2 Zrotation Xrotation
					End Site
					{
						OFFSET 0.0040 -0.1068 -0.0006
					}
				}
			}
		}
	}
	JOINT RightHip
	{
		OFFSET 0.0316 -0.0424 0.0458
		CHANNELS 3 Zrotation Xrotation Yrotation
		JOINT RightKnee
		{
			OFFSET 0.00 -0.2438 0.00
			CHANNELS 1 Zrotation
			JOINT RightAnkle
			{
				OFFSET 0.00 -0.2449 0.00
				CHANNELS 3 Zrotation Xrotation Yrotation
				End Site
				{
					OFFSET 0.1237 -0.0542 0.0051
				}
			}
		}
	}
	JOINT LeftHip
	{
		OFFSET 0.0316 -0.0424 -0.0458
		CHANNELS 3 Zrotation Xrotation Yrotation
		JOINT LeftKnee
		{
			OFFSET 0.00 -0.2438 0.00
			CHANNELS 1 Zrotation
			JOINT LeftAnkle
			{
				OFFSET 0.00 -0.2449 0.00
				CHANNELS 3 Zrotation Xrotation Yrotation
				End Site
				{
					OFFSET 0.1237 -0.0542 -0.0051
				}
			}
		}
	}
}
MOTION
Frames: 14
Frame Time: 0.02
0 0.57926 0 173.12674 0 2.55672 6.13834 -1.87468 -0.70109 -25.50132 5.33525 3.93202 20.88359 -19.07813 -12.79573 9.32666 82.42548 0.34214 3.30853 19.43906 2.1609 -4.8536 7.55504 -76.04188 -5.52004 0.28602 7.17229 3.98424 20.88358 -25.00195 11.03346 -9.80181 -12.27572 3.27348 -4.93842 -4.44147 -19.1641 9.23614 8.70466 14.47233
0.00022 0.57925 -7e-05 173.18796 0 2.57775 6.18442 -1.91146 -0.74501 -25.7245 5.33335 3.8763 20.85978 -18.89127 -12.71956 9.4163 82.44375 0.41435 3.20257 19.55847 2.1739 -4.82577 7.59414 -76.03998 -5.53526 0.24404 7.24466 3.97524 20.84641 -25.1996 11.45052 -10.16811 -12.26325 3.32643 -4.96239 -4.54557 -19.22049 9.23733 8.71504 14.51137
0.00043 0.57924 -0.00014 173.24944 0 2.59849 6.23149 -1.94783 -0.7889 -25.94891 5.33149 3.82073 20.83726 -18.70537 -12.64567 9.50441 82.46212 0.4862 3.09799 19.67928 2.18688 -4.79773 7.63271 -76.03758 -5.55039 0.20213 7.31579 3.96628 20.80846 -25.39579 11.86661 -10.53473 -12.25198 3.37863 -4.98605 -4.64942 -19.27647 9.23871 8.72541 14.55003
0.00063 0.57923 -0.00022 173.31243 0 2.61813 6.28192 -1.98278 -0.83335 -26.17741 5.3293 3.76466 20.81817 -18.52056 -12.57982 9.58742 82.48125 0.55747 2.9971 19.80399 2.20068 -4.76964 7.66944 -76.03343 -5.56529 0.15963 7.38293 3.95703 20.76611 -25.5873 12.28298 -10.90577 -12.24334 3.4288 -5.00856 -4.75276 -19.33116 9.24055 8.73554 14.58737
0.00092 0.57922 -0.00028 173.36727 0 2.64346 6.31328 -2.02506 -0.87512 -26.38058 5.32827 3.71052 20.77907 -18.3289 -12.47099 9.69759 82.49658 0.63197 2.8757 19.90454 2.21108 -4.74307 7.7158 -76.03888 -5.58135 0.11969 7.47151 3.9489 20.74603 -25.80263 12.698 -11.25289 -12.21832 3.49025 -5.03695 -4.8582 -19.39243 9.23957 8.74657 14.63147
0.00101 0.57922 -0.00036 173.43941 0 2.65682 6.38578 -2.05194 -0.92233 -26.6396 5.32522 3.65285 20.78357 -18.15264 -12.45342 9.75011 82.5198 0.69946 2.79844 20.05848 2.22802 -4.71247 7.74183 -76.02379 -5.59499 0.07475 7.51447 3.93866 20.67955 -25.96803 13.11539 -11.65059 -12.22962 3.52746 -5.05301 -4.95949 -19.43987 9.2448 8.75594 14.66143
0.00055 0.57926 -0.00045 173.56237 0 2.63554 6.57139 -2.03424 -0.98847 -27.04629 5.31231 3.57978 20.90379 -18.00947 -12.69397 9.64007 82.56722 0.74975 2.84007 20.3507 2.2695 -4.6771 7.70974 -75.95104 -5.60184 0.01105 7.42967 3.91988 20.47172 -25.98959 13.55187 -12.20127 -12.33137 3.49918 -5.03322 -5.04844 -19.44799 9.26613 8.75872 14.6501
-0.00012 0.57932 -0.00055 173.70249 0 2.60246 6.79896 -2.00137 -1.05965 -27.51181 5.29791 3.50445 21.06965 -17.88343 -13.02535 9.47249 82.62208 0.79275 2.9268 20.69955 2.31643 -4.63671 7.65748 -75.85748 -5.60628 -0.05688 7.29908 3.89936 20.21868 -25.962 13.98892 -12.80108 -12.47164 3.44621 -5.00132 -5.13355 -19.4426 9.29401 8.76022 14.6249
-0.00071 0.57937 -0.00064 173.83279 0 2.57576 7.00774 -1.97673 -1.12586 -27.95423 5.28726 3.43335 21.21702 -17.75556 -13.31205 9.33309 82.67223 0.83758 2.99499 21.02791 2.35673 -4.59411 7.6157 -75.77412 -5.61194 -0.11967 7.19048 3.88149 19.99538 -25.96065 14.41813 -13.37061 -12.60097 3.4035 -4.97604 -5.22099 -19.44382 9.31951 8.76358 14.60749
-0.00125 0.57943 -0.00073 173.97115 0 2.54472 7.21478 -1.94637 -1.20265 -28.37804 5.26458 3.34741 21.3523 -17.60265 -13.61488 9.18451 82.72859 0.88811 3.05517 21.33116 2.41464 -4.56944 7.56831 -75.68821 -5.61712 -0.19592 7.07684 3.85613 19.73564 -25.9423 14.8793 -13.97407 -12.70296 3.36457 -4.94588 -5.30557 -19.44207 9.3422 8.76147 14.58379
-0.00193 0.57946 -0.00083 174.0974 0 2.51998 7.43607 -1.92442 -1.25953 -28.85858 5.26544 3.2935 21.52684 -17.50585 -13.90343 9.04217 82.77303 0.9257 3.14242 21.70385 2.43708 -4.50756 7.52789 -75.60196 -5.62268 -0.2453 6.96292 3.84549 19.53813 -25.94832 15.27401 -14.51797 -12.87057 3.31223 -4.9232 -5.39568 -19.44452 9.37268 8.77057 14.56995
-0.0029 0.57943 -0.00095 174.18067 0 2.51495 7.68126 -1.92828 -1.25151 -29.44944 5.34114 3.31361 21.77475 -17.56019 -14.15811 8.92322 82.78516 0.92153 3.29622 22.22485 2.36153 -4.33158 7.51076 -75.52651 -5.62997 -0.21826 6.85833 3.87986 19.54861 -26.02729 15.48385 -14.88861 -13.21286 3.2257 -4.92257 -5.49735 -19.45074 9.41994 8.80989 14.58612
-0.00399 0.57936 -0.00108 174.252 0 2.51675 7.94039 -1.94112 -1.22441 -30.1026 5.43858 3.36821 22.06762 -17.66997 -14.39593 8.81323 82.78176 0.90456 3.47524 22.8205 2.25033 -4.11984 7.50143 -75.45053 -5.63755 -0.16438 6.75505 3.92828 19.61863 -26.133 15.62596 -15.19568 -13.61855 3.12682 -4.93013 -5.6052 -19.46331 9.4754 8.86075 14.61268
-0.00505 0.57931 -0.00121 174.33252 0 2.51585 8.19648 -1.95086 -1.21238 -30.74662 5.52018 3.41765 22.35238 -17.75457 -14.61582 8.70533 82.78749 0.90046 3.64076 23.39983 2.15399 -3.93382 7.48919 -75.37005 -5.64513 -0.12341 6.65219 3.96783 19.64487 -26.23152 15.8012 -15.53149 -13.99428 3.03606 -4.93508 -5.71377 -19.48084 9.52919 8.90697 14.63506
